<?xml version="1.0" encoding="UTF-8"?>
<svg xmlns="http://www.w3.org/2000/svg" viewBox="0 0 451.6 602.13">
  <g id="Rentegning">
    <path id="hår" d="M210.99,143.41c-1.01-2.59-5.04-5.62-10.79-7.38-16.84-5.15-55.64,11.65-75.67,45.19-19.14,32.05-15.93,69.78-15.37,76.38.41,4.88,1.55,14.36,2.46,29.97.81,13.91,1.44,24.78.92,34.89-1.57,30.78-18.1,47.59-12.91,51.79,4.42,3.58,18.95-5.99,20.59-7.07,9.67-6.37,12.82-12.91,16.6-11.68,2.19.71,2.4,3.31,6.63,14.75,4.13,11.17,5.2,12.12,6.28,12.3,1.76.28,3.75-1.47,12.91-15.68,6.71-10.4,8.03-13.18,9.84-12.91,3.52.53,5.55,12.11,5.53,20.6-.01,6.77-1.32,10.11,0,10.76,2.35,1.15,9.93-7.7,15.06-16.6,5.53-9.59,6.07-15.55,8.71-15.68,3.17-.16,6,8.77,9.21,18.75,3.46,10.76,3.47,14.6,5.7,15.06,3.88.8,9.99-9.57,12.96-18.44,3.27-9.78,2.61-17.44,4-17.52,1.43-.08,1.89,8.18,6.76,18.75.37.81,7.18,15.4,10.76,14.45,3.74-1,2.3-18.54,2.15-20.29-.97-11.8-3.88-17.8-2.15-18.75,1.9-1.04,6.58,5.59,17.83,16.6,1.85,1.81,16.31,15.97,18.14,14.45,1.26-1.05-5.13-8.22-8.02-21.21-1.27-5.71-2.29-14.5,0-15.37,2.93-1.12,6.91,12.32,19.08,17.83,7.81,3.53,16.56,4.05,17.52,1.84.88-2.01-5.45-4.65-9.53-11.99-3.71-6.67-3.4-13.35-3.07-19.06,1.6-27.57,2.39-41.35,2.46-41.81,1.94-13.71,4.51-31.95,4.92-49.92.5-22.05.86-38.12-7.07-56.74-3.28-7.71-13.07-29.81-36.27-41.5-8.79-4.42-19.37-9.49-30.74-6.46-7.1,1.9-10.94,4.7-15.29,7.31-8.21,4.93-7.83,10.3-10.14,4.37Z" style="fill: #f4cb64;"/>
    <path id="højreArm" d="M247,343.31l21.48,26.43c.17.21.47.27.71.13l7.53-4.39c.08-.05.16-.07.25-.08l2-.09c.39-.02.68.37.55.74l-.63,1.79c-.03.08-.07.15-.14.21l-4.69,4.58c-.27.27-.2.72.14.89l7.88,4.01c.06.03.11.07.15.11l1.49,1.57c.37.39.03,1.03-.5.93l-2.65-.49c-.06-.01-.12-.03-.17-.06l-5.45-3.04,4.4,4.67s.04.05.06.08l1.66,2.54c.31.47-.2,1.05-.71.8l-2.42-1.21c-.05-.03-.1-.06-.14-.1l-2.56-2.49c-.42-.41-1.12.04-.91.59l1.52,4.04c.02.05.03.11.03.16l.17,2.91c.03.54-.65.8-.99.38l-1.71-2.13s-.04-.05-.05-.07l-1.99-3.53c-.27-.48-1.01-.31-1.04.24l-.19,3.73s0,.04,0,.05l-.34,2.31c-.08.56-.86.65-1.07.12l-.85-2.19s-.02-.07-.03-.1l-2.03-11.34c-.02-.09-.05-.17-.11-.24l-22.52-28.79c-.17-.22-.15-.54.04-.73l2.98-2.98c.23-.23.62-.21.82.04Z" style="fill: #f2d8c0;"/>
    <path id="venstreArm" d="M163.62,353.41l-19.23,29.63c-.17.27-.53.34-.79.15l-5.19-3.62c-.07-.05-.15-.08-.24-.09l-3.16-.48c-.46-.07-.8.42-.57.83l1.14,2.02s.06.09.1.13l4.44,4.34c.29.28.19.77-.18.92l-5.97,2.44c-.06.03-.12.06-.17.11l-1.65,1.51c-.41.37-.09,1.05.46.97l2.52-.38c.06,0,.11-.03.16-.05l5.7-2.78-5.16,4.1c-.05.04-.09.09-.13.14l-1.11,1.77c-.28.45.16,1.01.67.83l2.14-.76c.07-.02.13-.06.19-.11l5.02-4.49-4.27,5.37c-.05.07-.09.14-.11.23l-.42,1.84c-.13.56.56.92.95.51l1.3-1.36s.03-.03.04-.05l2.19-2.91c.36-.48,1.12-.14,1,.45l-.69,3.33c-.01.07-.02.14,0,.21l.24,1.43c.09.54.82.64,1.06.15l1.17-2.38s.02-.05.03-.08l3.38-10.83s.04-.1.07-.14l19.29-29.73c.16-.25.1-.57-.13-.75l-3.27-2.53c-.26-.2-.64-.14-.82.14Z" style="fill: #f2d8c0;"/>
    <polygon id="tShirt" points="192.88 315.57 192.88 332.81 173.95 334.09 158.22 353.08 171.87 363.17 181.37 354.56 183.74 388.4 233.9 384.54 229.94 348.26 244.42 356.73 256.62 343.95 240.09 331.08 221.26 330.78 219.87 312.71 192.88 315.57" style="fill: #9e1f63;"/>
    <path id="ansigt" d="M278.62,216.9c-5.01,0-9.52,2.9-12.69,7.53-6.1-36.02-30.54-62.95-59.79-62.95s-54.44,27.74-60.06,64.57c-1.88-1.22-4-1.93-6.25-1.93-7.66,0-13.87,8-13.87,17.88s6.21,17.88,13.87,17.88c2.25,0,4.37-.71,6.25-1.93,5.64,36.81,30.38,64.53,60.06,64.53s54.63-27.96,60.12-65.01c3.15,4.36,7.52,7.06,12.36,7.06,9.61,0,17.39-10.66,17.39-23.81s-7.79-23.81-17.39-23.81Z" style="fill: #f2d8c0;"/>
    <path d="M137.94,249.12c-.57,0-1.2-.1-1.83-.41-.87-.42-1.37-1.06-1.59-1.33-2.03-2.57-1.2-6.25-.9-7.31.33-1.16.64-2.26,1.72-3.13,1.16-.93,3.22-1.48,5-.48,2.39,1.35,2.65,4.56,1.79,6.27-.26.51-.59.85-1.01,1.27-.62.64-2.08,2.13-3.33,1.62-.84-.34-1.06-1.35-1.18-1.9-.27-1.21-.03-2.7.56-3.53.33-.47.68-.6.92-.63.56-.07,1.09.3,1.64,1.11.15.23.09.54-.13.69-.23.15-.54.09-.69-.13-.45-.66-.68-.68-.69-.68h0s-.11.05-.23.21c-.38.53-.63,1.7-.4,2.74.08.34.23,1.05.58,1.19.29.12.91-.03,2.24-1.4.38-.39.64-.65.83-1.03.67-1.32.46-3.9-1.39-4.94-1.37-.77-2.98-.34-3.89.39-.83.66-1.07,1.53-1.38,2.62-.27.95-1.02,4.22.72,6.42.19.24.57.72,1.24,1.05,1.28.62,2.6.15,2.97-.01,1.07-.45,1.62-1.28,2.16-2.08.65-.97,1.08-2.07,1.28-3.28.05-.27.3-.45.58-.41.27.05.46.3.41.58-.23,1.35-.71,2.58-1.44,3.67-.59.88-1.26,1.88-2.6,2.45-.29.12-1.05.4-1.97.4Z" style="fill: #231f20;"/>
    <path d="M276.93,252.37c-.47,0-.96-.08-1.46-.3-1.41-.6-2.14-1.88-2.45-2.42-.46-.81-.8-2.06-.99-3.62-.18-1.53-.49-4.08.48-7.16.2-.62.61-1.9,1.55-3.32.95-1.43,2.26-3.39,4.58-3.87,2.05-.42,4.77.35,6.04,2.63,1.1,1.97.51,4.12.05,5.86-.57,2.14-1.58,3.81-3,4.96-.8.66-2.14,1.75-3.5,1.18-1.34-.57-1.63-2.4-1.69-2.95-.26-2.42,1.41-5,3.49-5.42.4-.08.81-.08,1.22,0,.27.05.45.31.4.58-.05.27-.32.45-.58.4-.29-.05-.57-.06-.84,0-1.58.32-2.89,2.42-2.69,4.33.09.81.42,1.86,1.09,2.14.79.34,1.84-.52,2.47-1.03,1.88-1.54,2.47-3.73,2.66-4.45.44-1.64.94-3.5.05-5.11-1.02-1.84-3.33-2.48-4.97-2.13-1.93.4-3.05,2.09-3.96,3.44-.87,1.31-1.25,2.5-1.43,3.07-.91,2.86-.62,5.29-.44,6.73.17,1.41.48,2.56.86,3.24.29.5.88,1.54,1.97,2,1.12.48,2.2.08,3.33-.34,1.03-.38,3.58-1.58,5.19-4.53.46-.85.81-1.78,1.03-2.75.06-.27.32-.44.6-.38.27.06.44.33.38.6-.24,1.06-.62,2.08-1.13,3.01-1.77,3.25-4.59,4.57-5.72,4.99-.8.3-1.68.62-2.61.62Z" style="fill: #231f20;"/>
    <ellipse id="venstreØjeH" cx="188.79" cy="254.54" rx="13" ry="21.51" style="fill: #fff;"/>
    <ellipse id="højreØjeH" cx="217.89" cy="254.54" rx="13" ry="21.51" style="fill: #fff;"/>
    <ellipse id="venstreØjes" cx="194.49" cy="266.83" rx="5.7" ry="9.22" style="fill: #231f20;"/>
    <ellipse id="højreØjeS" cx="210.99" cy="266.83" rx="5.7" ry="9.22" style="fill: #231f20;"/>
    <g id="mund">
      <g>
        <path d="M200.58,297.2c5.77-3.02,11.54-6.04,17.31-9.06" style="fill: #231f20;"/>
        <rect x="199.47" y="292.41" width="19.54" height=".5" transform="translate(-111.96 130.61) rotate(-27.66)" style="fill: #231f20;"/>
      </g>
      <g>
        <path d="M200.47,297.68c-.14-.03-.26-.12-.33-.26-.13-.24-.03-.55.21-.68l17.31-9.07c.24-.13.55-.03.67.21.13.24.03.55-.21.68l-17.31,9.07c-.11.06-.23.07-.34.04Z" style="fill: #231f20;"/>
        <path d="M200.58,297.95c-.05,0-.11,0-.16-.02h0c-.22-.05-.4-.19-.5-.38-.19-.37-.05-.82.32-1.01l17.31-9.07c.37-.19.82-.05,1.01.32.19.37.05.82-.32,1.01l-17.31,9.07c-.11.06-.23.08-.35.08ZM200.53,297.44c.06.01.12,0,.17-.02l17.31-9.07c.12-.06.17-.22.11-.34-.06-.12-.22-.17-.34-.11l-17.31,9.07c-.12.06-.17.22-.11.34.03.07.09.11.17.13Z" style="fill: #231f20;"/>
      </g>
    </g>
    <path d="M219.91,131.81s-.04,0-.05,0c-.55-.03-.98-.5-.95-1.05.03-.6-.08-1.04-.31-1.32-.52-.61-1.83-.53-3.1-.45-1.56.1-3.17.2-4.02-1.02-.82-1.19-.2-2.69.18-3.58.26-.61.59-1.2,1-1.74-1.95-.6-3.59-1.6-4.42-3.23-.99-1.94-.39-4.03-.07-5.16.24-.85.62-1.77,1.37-2.8-.9-.02-1.64-.05-2.18-.07h-.17c-3.95-.15-10-.63-16.93-3.11-5.13-1.84-7.47-3.6-7.84-5.9-.44-2.75,1.96-5.27,2.75-6.11,2.17-2.28,4.71-3.11,5.67-3.42,4.56-1.48,7.82-2.49,10.09-3.15-.24-.5-.4-1.08-.4-1.73,0-.73.2-1.85,1.2-3,.88-1.01,1.98-1.34,2.64-1.54.13-.04.24-.07.32-.1,5.09-2.45,9.41-3.31,12-3.81,3.44-.68,6.99-1.06,10.54-1.13.53.02,1.01.43,1.02.98.01.55-.43,1.01-.98,1.02-3.43.07-6.86.43-10.19,1.09-2.49.49-6.66,1.31-11.52,3.65-.15.07-.36.14-.61.22-.54.16-1.21.36-1.69.92-.49.56-.73,1.12-.72,1.69,0,.44.15.83.37,1.17,1.36-.38,2.12-.55,2.45-.62h0c1.46-.3,2.9-.59,4.31-.88,9.65-1.96,17.99-3.65,23.95-2.01,2.02.56,4.1,1.34,4.19,2.97.06.95-.71,1.86-2.43,2.86-2.72,1.59-5.33,1.98-6.07,2.07-11.46,1.3-12.94,1.32-14.96,1.25-2.02-.07-3.79-.43-7.32-1.12-1.49-.3-2.84-.63-4.2-1.72-.15-.12-.37-.3-.61-.52-2.2.63-5.62,1.67-10.76,3.35-.9.29-3.02.98-4.84,2.9-.62.65-2.51,2.64-2.23,4.41.15.91.99,2.35,6.54,4.34,7.43,2.66,13.9,2.9,16.33,2.99h.17c.85.04,2.17.09,3.89.1,1.57-1.45,3.9-3.08,7.44-4.96,6.94-3.68,12.93-6.87,20.16-5.49.77.15,7.57,1.52,7.59,4.57.02,2.38-3.88,3.73-8.6,5.12-3.33.98-6.06,1.29-10.59,1.81l-1.4.16c-5.59.65-10.34.8-13.78.8-1.29,1.33-1.79,2.42-2.05,3.33-.28.98-.7,2.46-.07,3.7.71,1.4,2.58,2.11,4.19,2.47,2.82-2.44,7.07-3.66,10.67-2.7,3.1.83,3.42,1.74,3.35,2.44-.07.72-.6,1.55-3.98,2.2-1.99.38-5.89.77-9.41.22-.57.61-1.03,1.29-1.33,2.02-.16.38-.58,1.38-.38,1.67.2.29,1.48.21,2.24.16,1.6-.1,3.58-.23,4.75,1.14.58.68.85,1.6.79,2.73-.03.53-.47.95-1,.95ZM217.09,121.37c3.33.21,6.75-.29,8.39-.8-.33-.12-.71-.25-1.12-.36-2.33-.63-5.07-.09-7.26,1.16ZM235.46,100.7c-5.25,0-10,2.52-15.77,5.59-2.2,1.17-3.88,2.22-5.19,3.17,3.07-.06,6.87-.26,11.18-.76l1.41-.16c4.57-.52,7.09-.81,10.25-1.74,6.48-1.91,7.17-2.86,7.17-3.18,0-.51-2.33-1.93-5.96-2.62-1.05-.2-2.08-.29-3.08-.29ZM204.6,90.75c.85.53,1.75.74,2.8.95,3.42.68,5.14,1.02,7,1.09,1.87.07,3.37.04,14.66-1.24.46-.05,2.84-.38,5.28-1.81.93-.54,1.28-.9,1.4-1.06-.14-.14-.69-.57-2.68-1.11-5.51-1.52-13.63.13-23.03,2.04-1.42.29-2.86.58-4.32.87h0s-.32.07-1.12.27Z" style="fill: #231f20;"/>
    <g>
      <rect x="93.75" y="389.44" width="74.03" height="36.45" rx="5.67" ry="5.67" transform="translate(326.56 26.94) rotate(45)" style="fill: #231f20;"/>
      <path d="M144.06,445.37c-1.71,0-3.42-.65-4.72-1.95l-44.33-44.33c-2.6-2.6-2.6-6.83,0-9.43l17.75-17.75c2.6-2.6,6.83-2.6,9.43,0l44.33,44.33c2.6,2.6,2.6,6.83,0,9.43l-17.75,17.75c-1.3,1.3-3.01,1.95-4.72,1.95ZM117.48,371.95c-1.2,0-2.39.46-3.3,1.37l-17.75,17.75c-1.82,1.82-1.82,4.78,0,6.6l44.33,44.33c1.82,1.82,4.78,1.82,6.6,0l17.75-17.75c1.82-1.82,1.82-4.78,0-6.6l-44.33-44.33c-.91-.91-2.11-1.37-3.3-1.37Z" style="fill: #231f20;"/>
    </g>
    <rect x="99.85" y="392.13" width="65.73" height="34.81" rx="2.83" ry="2.83" transform="translate(328.46 26.11) rotate(45)" style="fill: #fff;"/>
    <circle cx="130.84" cy="407.66" r="15.19" transform="translate(-249.94 211.92) rotate(-45)" style="fill: #00aeef;"/>
    <path d="M131.91,417.98c-2.33,0-5.75-1.29-10.91-4.01-1.22-.64-1.69-2.15-1.05-3.38.64-1.22,2.16-1.69,3.38-1.05,3.73,1.96,5.92,2.81,7.15,3.17-.01-.04-.03-.08-.04-.12-.57-1.66-1.43-4.17.37-5.9,1.44-1.39,3.29-1.06,4.77-.59-.53-1.28-1.51-3.28-3.33-6.37-.7-1.19-.3-2.72.89-3.42,1.19-.7,2.72-.3,3.42.89,4.81,8.17,5.71,11.77,3.47,13.76-1.48,1.3-3.3.84-4.76.33.55,1.61,1.14,3.7-.23,5.34-.75.89-1.74,1.35-3.13,1.35Z" style="fill: #fff;"/>
    <rect x="167.6" y="461.39" width="41.37" height="7.34" transform="translate(-284.81 632.13) rotate(-87.41)" style="fill: #f2d8c0;"/>
    <rect x="233.65" y="442.25" width="7.34" height="41.37" transform="translate(-44.94 25.95) rotate(-5.72)" style="fill: #f2d8c0;"/>
    <polygon points="183.74 388.4 167.48 438.91 197.94 454.87 210.26 428.85 222.05 453.83 255.53 429.54 233.9 384.54 183.74 388.4" style="fill: #231f20;"/>
    <path d="M183.65,485.55c-.79.04-15.01.87-19.35,14.47-.2.64.31,1.27.98,1.19l27.71-3.48c.48-.06.83-.49.79-.97l-.83-10.07c-.04-.46-.41-.82-.87-.83l-8.36-.3s-.05,0-.07,0Z" style="fill: #231f20;"/>
    <path d="M243.77,480.06s13.5-3.55,18.71,7.83c.22.48-.04,1.04-.53,1.13l-26.88,5.12c-.38.07-.75-.18-.85-.57-.59-2.41-2.4-10.24-.98-10.72,1.68-.56,10.53-2.8,10.53-2.8Z" style="fill: #231f20;"/>
    <g>
      <path d="M163.89,500.67l.32,1.71c.09.47.55.79,1.04.73l28.1-3.83c.46-.06,1.01-.38,1.01-.83l-.21-1.65c0-.54-.5-.96-1.05-.89l-28.42,3.71c-.52.07-.88.55-.79,1.05Z" style="fill: #fff;"/>
      <path d="M165.13,503.24c-.5,0-.94-.34-1.03-.84l-.32-1.71c-.05-.27.01-.55.17-.77.17-.23.43-.39.72-.42l28.42-3.71c.3-.04.62.05.85.25.22.19.35.47.35.76l.21,1.63c0,.51-.57.89-1.11.97l-28.1,3.83s-.1,0-.15,0ZM164.01,500.65l.32,1.71c.08.41.47.68.9.62l28.1-3.83c.43-.06.9-.36.9-.7l-.21-1.63c0-.23-.09-.44-.26-.58-.18-.15-.41-.23-.65-.19l-28.42,3.71c-.23.03-.42.14-.55.32-.12.17-.17.38-.13.58h0Z" style="fill: #231f20;"/>
    </g>
    <g>
      <path d="M233.86,493.46l.31,1.71c.09.47.53.79,1.01.73l27.19-3.83c.44-.06.97-.38.97-.83l-.2-1.65c0-.54-.48-.96-1.02-.89l-27.51,3.71c-.51.07-.85.55-.76,1.05Z" style="fill: #fff;"/>
      <path d="M235.05,496.02c-.49,0-.91-.34-1-.84l-.31-1.71c-.05-.28.01-.55.18-.78.17-.23.41-.38.69-.41l27.51-3.71c.29-.04.59.05.81.24.22.19.35.47.35.77l.2,1.63c0,.51-.55.89-1.08.97l-27.19,3.83s-.1,0-.15,0ZM262.24,488.81s-.07,0-.1,0l-27.51,3.71c-.21.03-.4.14-.52.31-.12.17-.17.38-.13.59l.31,1.71c.08.41.45.69.87.62l27.19-3.83c.42-.06.87-.34.87-.7l-.2-1.63c0-.24-.1-.45-.26-.59-.14-.12-.32-.19-.51-.19Z" style="fill: #231f20;"/>
    </g>
    <circle cx="185.69" cy="491.37" r="3.54" style="fill: #fff;"/>
    <circle cx="241.52" cy="486.85" r="3.54" style="fill: #fff;"/>
    <path d="M281.77,409.93c-10.86,0-19.7-8.25-19.7-18.39s10.14-17.9,17.47-19.54c4.54-1.02,9.39.3,13.66,3.72,5.02,4.02,8.27,10.23,8.27,15.82,0,10.14-8.84,18.39-19.7,18.39ZM282.57,377.66c-.56,0-1.13.06-1.72.19-5.33,1.19-12.78,6.98-12.78,13.68s6.14,12.39,13.7,12.39,13.7-5.56,13.7-12.39c0-3.78-2.42-8.25-6.02-11.14-1.37-1.1-3.91-2.74-6.88-2.74Z" style="fill: #2d2de8;"/>
    <rect x="255.48" y="380.97" width="107.26" height="76.1" rx="17.01" ry="17.01" transform="translate(-200.61 312.66) rotate(-41.8)" style="fill: #2d2de8;"/>
    <g>
      <circle cx="312.04" cy="419.02" r="26.87" style="fill: #2d2de8;"/>
      <path d="M312.04,446.13c-14.95,0-27.12-12.16-27.12-27.12s12.17-27.12,27.12-27.12,27.12,12.17,27.12,27.12-12.16,27.12-27.12,27.12ZM312.04,392.4c-14.68,0-26.62,11.94-26.62,26.62s11.94,26.62,26.62,26.62,26.62-11.94,26.62-26.62-11.94-26.62-26.62-26.62Z" style="fill: #fff;"/>
    </g>
    <g>
      <path d="M328.78,427.66l-10.83-8.05-1.33,1.43c-1.09-2.52-4.97-3.62-8.01-3.62-3.57,0-6.46.23-6.46,3.79,0,1.81,1.71,4.4,2.91,5.57,1.16,1.14,1.8,3.55,3.55,3.55,1.5,0,2.91-1.37,4.02-2.55l6.74,10.94c.29.48.95.56,1.36.18l4.5-4.25c.08-.08.16-.16.22-.26l3.57-5.15c.36-.51.24-1.22-.26-1.59Z" style="fill: #2d2de8;"/>
      <path d="M320.14,439.41s-.1,0-.15,0c-.34-.04-.64-.24-.82-.53l-6.57-10.66c-1.23,1.27-2.55,2.39-3.98,2.39-1.3,0-2.02-1.13-2.71-2.23-.33-.53-.65-1.03-1.02-1.39-1.2-1.18-2.98-3.82-2.98-5.75,0-4.04,3.72-4.04,6.71-4.04s6.76,1.08,8.07,3.43l1.23-1.33,11.01,8.19c.61.46.75,1.31.32,1.94l-3.57,5.15c-.07.11-.16.21-.26.3l-4.5,4.25c-.21.2-.49.31-.78.31ZM312.68,427.39l6.92,11.22c.1.16.27.27.46.29.19.03.38-.04.52-.17l4.5-4.25c.07-.07.13-.14.19-.22l3.57-5.15c.28-.41.19-.96-.21-1.25l-10.65-7.92-1.43,1.55-.15-.35c-1.03-2.38-4.75-3.47-7.78-3.47-3.64,0-6.21.25-6.21,3.54,0,1.71,1.65,4.24,2.83,5.4.41.4.76.95,1.09,1.48.65,1.03,1.26,2,2.28,2,1.33,0,2.63-1.19,3.84-2.47l.22-.24Z" style="fill: #fff;"/>
    </g>
    <g>
      <path d="M319.94,405.04c-2.44-1.53-4.03-3.24-7.51-3.24-3.15,0-6.14,3.14-8.49,5.03,0-2.7-.14-5.5-1.42-5.5-1.36,0-2.95,3.04-2.95,5.87,0,.63.06,1.23.16,1.79-.49-.07-1.05-.12-1.69-.12-3.76,0-4.5,1.39-4.48,2.14.02.61,1.84,1.53,3.23,1.53.76,0,1.45-.05,2.09-.12-.97,1.77-1.61,3.62-1.61,5.02,0,2.81,2.37,5.21,6.34,2.32,2.51-1.83,3.08-.28,6.77.76,3.81,1.08,6.14,2.54,8.54,1.11,3.12-1.86,5.77-4.82,5.77-7.98s-1.78-6.75-4.74-8.61Z" style="fill: #2d2de8;"/>
      <path d="M316.75,422.47c-1.23,0-2.53-.44-4.02-.94-.76-.26-1.55-.52-2.43-.77-1.15-.32-2-.7-2.69-1-1.54-.67-2.24-.98-3.87.21-1.82,1.33-3.55,1.7-4.85,1.04-1.16-.59-1.88-1.95-1.88-3.56,0-1.26.51-2.96,1.42-4.72-.57.05-1.11.07-1.65.07-1.38,0-3.45-.93-3.48-1.77,0-.25.05-.74.52-1.22.52-.54,1.67-1.17,4.21-1.17.48,0,.95.03,1.39.08-.07-.5-.11-1.01-.11-1.5,0-2.92,1.68-6.12,3.21-6.12,1.43,0,1.64,2.51,1.67,5.23.29-.24.59-.5.9-.76,2.18-1.87,4.66-3.99,7.34-3.99,2.86,0,4.51,1.14,6.25,2.35.44.31.9.62,1.39.93h0c2.86,1.8,4.86,5.43,4.86,8.82,0,2.94-2.2,6-5.89,8.19-.75.45-1.5.62-2.29.62ZM305.67,418.67c.69,0,1.33.28,2.14.64.67.29,1.51.66,2.63.98.89.25,1.72.53,2.45.78,2.41.81,4.15,1.4,5.89.36,2.73-1.62,5.65-4.52,5.65-7.76s-1.94-6.72-4.62-8.4h0c-.5-.31-.96-.63-1.4-.94-1.75-1.21-3.27-2.26-5.97-2.26-2.5,0-4.9,2.06-7.02,3.87-.46.39-.89.77-1.31,1.1l-.4.33v-.52c0-1.71-.02-5.25-1.17-5.25s-2.71,2.83-2.71,5.62c0,.57.05,1.16.16,1.75l.06.34-.34-.05c-.52-.08-1.07-.12-1.66-.12-2.37,0-3.4.55-3.85,1.02-.34.35-.38.69-.38.86.01.37,1.61,1.29,2.98,1.29.67,0,1.34-.04,2.06-.12l.48-.05-.23.42c-1.01,1.83-1.58,3.62-1.58,4.9,0,1.41.62,2.61,1.61,3.11,1.13.57,2.67.22,4.33-.99.89-.65,1.58-.9,2.22-.9Z" style="fill: #fff;"/>
    </g>
    <path d="M177.78,224c-.4,0-.77-.24-.93-.63-.2-.51.05-1.09.56-1.3.45-.18,11.16-4.34,17.77-.27.47.29.62.91.33,1.38-.29.47-.91.62-1.38.33-5.76-3.54-15.89.39-15.99.43-.12.05-.24.07-.37.07Z" style="fill: #231f20;"/>
    <path d="M207.59,224.41c-.24,0-.49-.09-.68-.27-.4-.37-.43-1-.06-1.41.21-.23,5.24-5.55,14.82-1.14.5.23.72.82.49,1.33-.23.5-.83.72-1.33.49-8.2-3.78-12.34.49-12.51.67-.2.21-.47.32-.73.32Z" style="fill: #231f20;"/>
  </g>
  <g id="Hotspot">
    <circle id="hotspotTelefon" cx="113.15" cy="443.37" r="24.93" style="fill: #ed1c24;"/>
    <circle id="hotspotIrma" cx="331.69" cy="361.91" r="23.68" style="fill: #ed1c24;"/>
    <circle id="hotspotHoved" cx="182.14" cy="100.7" r="23.53" style="fill: #ed1c24;"/>
  </g>
</svg>